PathFileType	4	(X/Y/Z)	D:\TRACE\v60_Jaco2_6-2-23\JustBodyDRS_Motion3_2-platform.trc
DataRate	CameraRate	NumFrames	NumMarkers	Units	OrigDataRate	OrigDataStartFrame	OrigNumFrames
100.00	100.00	      72	5	mm	100.00	3501	      7000
Frame#	Time	Left_Front			Right_Front			Left_Aft			Right_Aft			Post			
		X1	Y1	Z1	X2	Y2	Z2	X3	Y3	Z3	X4	Y4	Z4	X5	Y5	Z5	

3501	35.000	-770.45862	36.82248	-643.93481	800.29315	35.23608	-620.71393	-701.82849	-7.88268	489.55936	712.50012	-13.72334	595.08704	24.49883	1346.53406	-902.36804	
3502	35.010	-770.98834	37.34129	-643.71497	799.66638	35.58987	-620.62457	-702.47107	-8.05140	489.53796	712.00037	-13.99583	595.04694	24.04631	1347.14050	-901.61749	
3503	35.020	-771.67126	38.11546	-643.32178	798.96387	35.96384	-620.55450	-703.22003	-8.31006	489.58823	711.28186	-13.97705	595.18884	23.25190	1347.62598	-900.79382	
3504	35.030	-772.31488	38.62346	-643.22705	798.28809	36.30801	-620.45959	-703.50079	-8.75658	489.62186	710.47180	-14.55295	595.21582	22.45485	1348.07666	-899.90411	
3505	35.040	-772.86011	38.75700	-643.26093	797.62109	36.70328	-620.30371	-704.44269	-8.96394	489.71332	709.89801	-15.08692	595.29980	22.42761	1348.53699	-899.53571	
3506	35.050	-773.70081	38.87315	-643.39990	797.09332	36.89621	-620.27496	-705.01276	-9.27666	489.87085	709.45575	-15.15480	595.43573	21.83405	1349.32922	-898.78021	
3507	35.060	-773.94312	39.00522	-642.91998	796.38379	37.25411	-620.09198	-705.64996	-9.60958	490.08731	708.51355	-15.40758	595.45239	20.55641	1349.77661	-898.11292	
3508	35.070	-775.06116	39.48554	-643.17474	795.85107	37.57201	-620.06470	-706.21716	-9.96933	490.20160	708.03101	-15.65007	595.48138	20.31677	1350.10034	-897.37378	
3509	35.080	-775.70563	39.90631	-643.04285	795.10016	38.01402	-620.00458	-706.78186	-10.30512	490.36157	707.00458	-16.19157	595.70026	19.50590	1350.42419	-896.55615	
3510	35.090	-776.10950	39.95073	-642.64124	794.42896	38.29443	-619.88898	-707.55322	-10.41770	490.41379	706.32831	-16.42889	595.76959	18.78495	1350.93445	-895.69385	
3511	35.100	-776.97833	40.20379	-642.84998	793.82025	38.47915	-619.74121	-708.13965	-10.63212	490.44153	706.12964	-16.62828	595.68579	17.94472	1351.32422	-895.04102	
3512	35.110	-777.54694	40.38448	-642.97614	793.13538	38.73740	-619.81836	-708.91339	-10.69777	490.46332	705.78369	-16.70280	595.76318	16.97502	1351.55103	-894.24377	
3513	35.120	-778.57343	40.62558	-642.74213	792.39325	38.94310	-619.75452	-709.70184	-10.79872	490.41226	705.00659	-16.82084	595.81732	16.67925	1351.81372	-893.47931	
3514	35.130	-779.14807	40.73023	-642.47534	791.53278	39.07397	-619.75824	-710.47900	-10.60027	490.09937	704.29669	-17.05276	595.69244	16.00814	1351.87463	-893.03223	
3515	35.140	-779.53717	41.01802	-642.32452	790.89539	39.28056	-619.66632	-711.36731	-10.56360	490.23422	703.38513	-17.42189	595.69354	14.84102	1352.23608	-892.36700	
3516	35.150	-780.34747	41.42033	-642.51941	790.32166	39.48357	-619.56567	-711.96411	-10.69842	490.19937	702.59692	-17.65583	595.79285	14.42408	1352.70776	-892.03497	
3517	35.160	-781.31085	41.60349	-642.75879	789.51239	39.63779	-619.59534	-712.69733	-10.73800	490.21506	702.16345	-17.58127	595.71869	14.28186	1353.13757	-891.84796	
3518	35.170	-781.99518	41.88840	-642.49951	788.62604	39.74784	-619.55920	-713.41827	-10.94627	490.19037	701.45941	-17.66320	595.69586	13.52913	1353.46973	-891.75482	
3519	35.180	-782.55371	42.10429	-642.18414	788.00006	39.86412	-619.48126	-714.17725	-11.08670	490.29999	700.68860	-17.72761	595.86157	12.00194	1353.46777	-891.38702	
3520	35.190	-783.21637	42.05290	-642.24316	787.33173	40.05387	-619.37457	-714.81958	-11.23944	490.45276	700.07367	-17.79161	595.91522	11.47953	1353.70850	-891.49310	
3521	35.200	-784.00751	42.11578	-642.25732	786.71753	40.16715	-619.41071	-715.43011	-11.31878	490.36981	699.22009	-18.19253	596.01196	11.07448	1353.84863	-891.62927	
3522	35.210	-784.98407	42.43246	-642.47064	785.91071	40.30431	-619.51166	-716.37048	-11.22320	490.31827	698.44312	-18.21947	596.00427	10.59739	1353.97852	-891.63684	
3523	35.220	-785.60626	42.48533	-642.59918	785.04547	40.33801	-619.51837	-717.04993	-11.29951	490.17996	697.69666	-18.29454	595.89227	9.64513	1354.17322	-891.26971	
3524	35.230	-786.37341	42.75162	-642.14142	784.49908	40.34310	-619.37415	-717.71924	-11.41126	490.35815	697.19104	-18.25671	595.87018	8.60186	1354.27026	-890.77399	
3525	35.240	-786.96680	42.78236	-642.00507	783.79364	40.42431	-619.29352	-718.56317	-11.52775	490.47522	696.24231	-18.25698	596.05194	8.25351	1354.17456	-890.65051	
3526	35.250	-787.66846	42.68895	-642.21893	782.84760	40.42100	-619.42834	-719.35895	-11.36180	490.31796	695.61078	-18.30887	596.01849	7.73580	1354.32312	-890.56049	
3527	35.260	-788.65875	42.72641	-642.49103	782.24969	40.53294	-619.39166	-719.79181	-11.56763	490.40503	694.87006	-18.28671	596.05750	6.46429	1354.45703	-890.11499	
3528	35.270	-789.23389	42.74543	-642.60260	781.50317	40.47427	-619.36609	-720.71301	-11.38611	490.43878	694.04309	-18.52563	595.97296	5.61524	1354.35815	-890.00800	
3529	35.280	-789.93805	42.62356	-642.44775	780.89240	40.50910	-619.35730	-721.19763	-11.77274	490.46478	693.31097	-18.51637	595.88422	5.22715	1354.30212	-890.05737	
3530	35.290	-790.50946	42.75646	-642.25409	779.99774	40.58616	-619.47034	-721.92633	-11.85058	490.44806	692.48511	-18.42169	595.86786	4.66464	1354.27234	-890.04352	
3531	35.300	-791.22650	42.70282	-642.39142	779.19073	40.45628	-619.53113	-722.68140	-11.86334	490.48297	691.90350	-18.54812	595.80023	4.08632	1354.25647	-890.11908	
3532	35.310	-792.25842	42.72003	-642.54846	778.65149	40.42802	-619.45917	-723.43738	-11.78154	490.53149	691.20972	-18.38398	595.83630	2.55892	1354.34509	-890.24292	
3533	35.320	-792.91241	42.90830	-642.43164	778.01996	40.46618	-619.42493	-723.90997	-11.79476	490.56131	690.56696	-18.33607	595.84290	2.03875	1354.31458	-890.57605	
3534	35.330	-793.55084	42.66048	-642.44983	777.18286	40.45066	-619.42175	-724.96582	-11.59981	490.49551	690.02960	-18.24117	595.78223	1.77667	1354.20618	-890.94696	
3535	35.340	-793.95538	42.54077	-642.39923	776.52643	40.36322	-619.55237	-725.52002	-11.50443	490.47192	689.18146	-18.11212	595.80603	1.24831	1354.28259	-891.02863	
3536	35.350	-794.88525	42.29860	-642.41467	775.77386	40.17653	-619.53345	-726.28876	-11.49189	490.41281	688.53796	-18.07413	595.69635	-0.02431	1353.99573	-891.03015	
3537	35.360	-795.79974	42.25459	-642.64417	775.11871	40.05756	-619.52264	-726.85828	-11.44660	490.40927	687.64429	-18.15573	595.78400	-0.65540	1353.70801	-891.39783	
3538	35.370	-796.40588	42.16202	-642.58075	774.43628	40.05974	-619.67694	-727.68884	-11.19284	490.20523	687.03723	-18.02824	595.73486	-1.09838	1353.49414	-891.67273	
3539	35.380	-797.01379	42.05292	-642.75977	773.58862	40.06229	-619.73889	-728.22717	-11.22765	490.16751	686.29694	-17.84713	595.62024	-1.64500	1353.28516	-891.78735	
3540	35.390	-797.28119	41.78238	-642.66345	773.01337	39.90406	-619.71863	-728.78705	-11.19653	490.23468	685.43909	-17.68003	595.64825	-2.54364	1353.12671	-892.07074	
3541	35.400	-798.03430	41.28857	-642.63531	772.36133	39.49966	-619.90045	-729.62372	-11.06710	490.22940	684.95667	-17.76228	595.60632	-3.40873	1352.75635	-892.58069	
3542	35.410	-799.00793	41.14172	-642.84247	771.66608	39.26958	-619.98389	-730.21082	-10.99420	490.23593	684.24969	-17.46272	595.50848	-3.92706	1352.34082	-892.88239	
3543	35.420	-799.89966	41.12472	-642.98584	771.04584	39.11293	-620.04846	-730.79321	-10.83807	490.23923	683.69128	-17.21493	595.44031	-4.42567	1352.26367	-893.50031	
3544	35.430	-800.29126	41.00617	-643.04938	770.35297	39.06282	-620.08484	-731.55695	-10.57174	490.14362	683.54358	-16.50052	595.30725	-5.06561	1352.09436	-894.16150	
3545	35.440	-800.40234	40.81256	-642.73889	769.79822	38.96391	-620.07745	-732.30072	-10.39464	490.02832	682.60175	-16.81581	595.28827	-5.57866	1352.00989	-894.77197	
3546	35.450	-801.17450	40.47294	-642.93750	769.24170	38.70676	-620.18976	-732.80048	-10.34476	489.99686	682.01923	-16.65012	595.32080	-6.24821	1351.63074	-895.43823	
3547	35.460	-801.91669	40.14715	-643.11438	768.61920	38.50358	-620.32404	-733.28131	-10.26576	489.94916	681.14264	-16.41808	595.76465	-7.01126	1351.21411	-895.86670	
3548	35.470	-802.75806	40.18982	-643.36847	767.95898	38.13860	-620.33282	-733.93610	-10.23160	489.95490	680.71344	-16.15147	595.38995	-7.53206	1351.01611	-896.33002	
3549	35.480	-803.29712	40.24063	-643.20850	767.41351	37.88955	-620.46539	-734.54663	-10.04895	489.91208	680.35126	-16.06505	595.25476	-7.92706	1350.74060	-896.64954	
3550	35.490	-803.83527	39.94594	-643.33124	766.82373	37.69534	-620.55719	-735.07098	-9.74421	489.84445	679.70996	-15.84829	595.32233	-8.53417	1350.26917	-897.27966	
3551	35.500	-804.24445	39.43884	-643.62238	766.41187	37.53746	-620.67419	-735.35077	-9.54816	489.71707	679.25378	-15.54196	595.30096	-8.89190	1349.88000	-897.76752	
3552	35.510	-804.98547	39.38724	-643.33429	765.92236	37.11777	-620.70520	-736.16113	-9.14343	489.53629	678.67096	-15.27310	595.15912	-9.32143	1349.35352	-898.38721	
3553	35.520	-805.26373	39.04575	-643.68231	765.45667	36.70229	-620.76764	-736.67871	-8.80793	489.46307	677.21161	-15.94562	594.73926	-9.96279	1348.84998	-898.98938	
3554	35.530	-805.78809	38.59661	-643.61127	764.92578	36.35540	-620.87085	-737.22748	-8.67044	489.46762	678.30304	-14.60302	594.95123	-10.41365	1348.45911	-899.61993	
3555	35.540	-806.28766	38.02321	-643.88312	764.49884	36.10954	-620.90521	-737.47266	-8.63487	489.45795	677.31433	-14.38237	594.85065	-10.70728	1348.07080	-900.45648	
3556	35.550	-806.72076	37.90804	-644.04266	763.95306	35.78658	-621.03375	-737.83984	-8.47069	489.41620	676.67761	-14.10490	594.76404	-11.44816	1347.73547	-901.33496	
3557	35.560	-807.29102	37.76255	-644.15411	763.49335	35.43837	-621.17877	-738.34326	-8.29466	489.38007	676.49750	-14.00418	594.71613	-11.86998	1347.24976	-902.37390	
3558	35.570	-807.51801	37.10641	-643.90350	763.10931	35.16821	-621.19672	-738.83173	-7.99483	489.25528	676.12976	-13.78431	594.64807	-12.31304	1346.92505	-903.22595	
3559	35.580	-808.00037	36.73929	-644.27686	762.81079	34.79747	-621.28448	-739.27899	-7.67726	489.10159	675.58356	-13.50696	594.55920	-12.75421	1346.27539	-904.09540	
3560	35.590	-808.57117	36.49855	-644.06335	762.53619	34.46777	-621.41315	-739.62976	-7.30055	488.91272	675.19922	-13.27834	594.44061	-12.88444	1345.69458	-904.82800	
3561	35.600	-808.78613	36.28773	-644.08368	762.23486	34.15228	-621.48639	-739.84753	-7.01716	488.89838	674.89233	-13.02796	594.29510	-12.96435	1345.20398	-905.92694	
3562	35.610	-808.64539	36.04698	-644.40613	761.94983	33.81025	-621.50671	-740.00714	-6.85558	488.86700	674.56714	-12.69076	594.20941	-13.44391	1344.75671	-906.80414	
3563	35.620	-808.99652	35.52187	-644.76721	761.69141	33.47006	-621.64673	-740.22791	-6.67793	488.77872	674.16370	-12.41494	594.14233	-13.43713	1344.25916	-907.23694	
3564	35.630	-809.27283	34.95135	-644.80176	761.54602	33.09497	-621.61243	-740.38635	-6.54669	488.70184	673.92395	-12.27235	593.99280	-13.85199	1343.67188	-908.07465	
3565	35.640	-809.53662	34.66643	-644.69757	761.06348	32.57008	-621.92676	-740.60468	-6.25314	488.63849	673.62885	-11.94541	593.84747	-13.84752	1343.07031	-908.79059	
3566	35.650	-809.36993	34.38259	-644.91644	760.92413	32.24761	-622.09814	-740.91241	-5.77521	488.45966	674.05469	-11.21701	593.74622	-13.99089	1342.56262	-909.50751	
3567	35.660	-809.50885	33.80133	-645.16431	760.96338	31.82368	-622.19177	-741.04333	-5.31617	488.26523	673.79419	-11.09780	593.74670	-13.99167	1341.93628	-910.28918	
3568	35.670	-809.65875	33.27539	-645.34863	760.81238	31.45841	-622.25378	-741.11322	-5.02719	488.13663	673.57629	-10.78406	593.77942	-14.45451	1341.34155	-911.15509	
3569	35.680	-809.92084	32.82619	-645.46893	760.64996	30.96483	-622.43097	-741.14215	-4.80002	488.11276	673.41656	-10.70450	593.73401	-14.44294	1340.93762	-912.49609	
3570	35.690	-810.02698	32.09768	-645.66272	760.57245	30.57448	-622.60291	-741.18585	-4.64927	488.06845	673.11255	-10.24978	593.48981	-14.21028	1340.09229	-913.36609	
3571	35.700	-809.82751	32.12527	-645.63208	760.55438	30.18241	-622.70923	-741.27484	-4.42708	487.90503	673.05280	-9.98024	593.03619	-14.51454	1339.51404	-914.45142	
3572	35.710	-809.86908	31.87869	-645.92029	760.64862	29.90297	-622.73828	-741.26514	-4.10718	487.69870	672.29016	-10.40320	592.54883	-14.64887	1339.01270	-915.60724	
